<svg xmlns="http://www.w3.org/2000/svg" width="108" height="18" viewBox="0 0 108 18">
  <defs>
    <style>
      .cls-1 {
        fill: #fff;
        fill-rule: evenodd;
      }
    </style>
  </defs>
  <path id="ТЕХНОМАРТ" class="cls-1" d="M225.421,15.307h3.8V31.055h2.136V15.307h3.8v-1.75h-9.73v1.75Zm13.765,7.5h5.221v-1.75h-5.221V15.307h5.933v-1.75H237.05v17.5h8.069v-1.75h-5.933v-6.5Zm12.34-2.25-2.61-7H246.78l3.2,8.5-3.56,9h2.136l2.966-7.5,2.967,7.5h2.136l-3.56-9,3.2-8.5h-2.136Zm14.239-7v7.75h-4.983v-7.75h-2.136v17.5h2.136v-8h4.983v8H267.9v-17.5h-2.136Zm7.939,0.175a3.788,3.788,0,0,0-1.6,1.45,7.919,7.919,0,0,0-1.009,2.762,23.054,23.054,0,0,0-.344,4.362,23.049,23.049,0,0,0,.344,4.362,7.919,7.919,0,0,0,1.009,2.763,3.788,3.788,0,0,0,1.6,1.45,5.639,5.639,0,0,0,4.3,0,3.788,3.788,0,0,0,1.6-1.45,7.939,7.939,0,0,0,1.009-2.763,23.049,23.049,0,0,0,.344-4.362,23.054,23.054,0,0,0-.344-4.362,7.939,7.939,0,0,0-1.009-2.762,3.788,3.788,0,0,0-1.6-1.45A5.636,5.636,0,0,0,273.7,13.732Zm1.032,15.749a2.616,2.616,0,0,1-.949-1.175,9.073,9.073,0,0,1-.653-2.3,22.541,22.541,0,0,1-.249-3.7,22.541,22.541,0,0,1,.249-3.7,9.08,9.08,0,0,1,.653-2.3,2.617,2.617,0,0,1,.949-1.175,2.077,2.077,0,0,1,2.231,0,2.617,2.617,0,0,1,.949,1.175,9.08,9.08,0,0,1,.653,2.3,22.541,22.541,0,0,1,.249,3.7,22.541,22.541,0,0,1-.249,3.7,9.073,9.073,0,0,1-.653,2.3,2.616,2.616,0,0,1-.949,1.175A2.079,2.079,0,0,1,274.736,29.481Zm17.253-.675,3.442-10.749h0.118l0.712,13H298.4l-0.949-17.5h-2.611l-3.868,12h-0.095l-3.868-12H284.4l-0.949,17.5h2.136l0.712-13h0.118l3.441,10.749h2.136Zm16.138-2.25,1.068,4.5h2.136l-4.035-17.5h-3.085l-4.034,17.5h2.136l1.068-4.5h4.746Zm-0.356-1.75h-4.035l1.97-8.749H305.8Zm7.831-.625V14.931h1.662a4.061,4.061,0,0,1,1.388.213,2.023,2.023,0,0,1,.961.738,3.626,3.626,0,0,1,.558,1.425,11.851,11.851,0,0,1,.178,2.25,11.85,11.85,0,0,1-.178,2.25,3.628,3.628,0,0,1-.558,1.425,2.023,2.023,0,0,1-.961.737,4.054,4.054,0,0,1-1.388.212H315.6Zm0,1.5a10.885,10.885,0,0,0,1.14.175,11.416,11.416,0,0,0,1.234.075,5.765,5.765,0,0,0,2-.312,3.063,3.063,0,0,0,1.4-1.05,5.039,5.039,0,0,0,.831-1.962,14.318,14.318,0,0,0,.273-3.05,13.124,13.124,0,0,0-.285-2.975,4.546,4.546,0,0,0-.9-1.925,3.4,3.4,0,0,0-1.614-1.038,8.16,8.16,0,0,0-2.42-.312,16.268,16.268,0,0,0-1.982.113,10.731,10.731,0,0,0-1.815.387V31.055H315.6V25.681Zm8.069-10.374h3.8V31.055H329.6V15.307h3.8v-1.75h-9.73v1.75Z" transform="translate(-225.406 -13.313)"/>
</svg>
